<svg width="26" height="30" viewBox="0 0 26 30" fill="none" xmlns="http://www.w3.org/2000/svg">
<path d="M12.7499 5.53843C11.9826 5.53843 11.3293 5.26872 10.7899 4.7293C10.2504 4.18988 9.98073 3.53652 9.98073 2.76921C9.98073 2.00191 10.2504 1.34855 10.7899 0.809129C11.3293 0.26971 11.9826 0 12.7499 0C13.5172 0 14.1706 0.26971 14.71 0.809129C15.2494 1.34855 15.5192 2.00191 15.5192 2.76921C15.5192 3.53652 15.2494 4.18988 14.71 4.7293C14.1706 5.26872 13.5172 5.53843 12.7499 5.53843V5.53843M8.85576 29.3076V9.74994C7.32691 9.62494 5.80672 9.44466 4.29518 9.20908C2.78365 8.97351 1.35192 8.68264 0 8.33649L0.548062 6.08654C2.46921 6.5827 4.46007 6.94231 6.52064 7.16539C8.58121 7.38846 10.6576 7.5 12.7499 7.5C14.8422 7.5 16.9187 7.38846 18.9792 7.16539C21.0398 6.94231 23.0307 6.5827 24.9518 6.08654L25.4999 8.33649C24.148 8.68264 22.7162 8.97351 21.2047 9.20908C19.6932 9.44466 18.173 9.62494 16.6441 9.74994V29.3076H14.3942V20.1346H11.1057V29.3076H8.85576V29.3076" fill="black"/>
</svg>
