<svg width="624" height="529" viewBox="0 0 624 529" fill="none" xmlns="http://www.w3.org/2000/svg">
<path d="M308.621 0C308.85 0.016451 309.079 0.036476 309.307 0.060318C310.959 0.241755 311.872 0.734092 313.32 1.54782C321.693 6.25494 330 11.1573 338.314 15.9639L388.436 44.9092L435.717 72.2372C444.355 77.2146 453.074 82.1888 461.682 87.2166C462.887 87.9202 463.717 88.6655 464.594 89.7622C465.201 93.3242 465.061 97.3232 465.068 100.969L465.073 115.9L465.07 167.68L465.066 237.303L465.077 254.343C465.08 258.489 465.361 265.282 464.405 269.046C463.59 270.036 462.909 270.653 461.796 271.299C446.049 280.431 430.25 289.517 414.475 298.594L350.21 335.723L323.108 351.392C319.913 353.232 313.109 357.481 309.943 358.559C307.692 358.432 307.261 358.206 305.26 357.102C300.16 354.286 295.153 351.28 290.116 348.354L269.85 336.691L205.53 299.545L170.965 279.563C167.246 277.41 156.492 271.6 153.811 269.01C153.123 265.444 153.321 257.049 153.32 253.11L153.326 226.629L153.329 128.221C153.328 123.563 152.692 91.2931 153.987 89.4592C154.071 89.3414 154.19 89.2539 154.29 89.1497C155.051 88.3558 155.847 87.6946 156.78 87.1162C161.066 84.4595 165.573 82.0665 169.935 79.5304L200.431 61.9431L263.546 25.4732L291.099 9.54633C294.298 7.69118 305.787 0.703338 308.621 0ZM309.195 274.52C310.821 271.776 312.321 268.674 313.761 265.811C320.296 252.822 327.765 240.057 334.158 227.01C338.169 219.634 342.096 212.209 345.933 204.74L368.647 161.678L376.733 146.233C378.075 143.68 379.738 140.313 381.246 137.953L287.867 137.935L254.708 137.96C249.349 137.964 242.568 138.149 237.353 137.913C243.187 149.388 249.153 160.795 255.249 172.132L283.041 224.896L300.475 257.969C302.974 262.719 306.575 270.155 309.195 274.52ZM319.478 279.737C323.434 278.874 328.599 278.347 332.753 277.756C341.26 276.463 349.786 275.305 358.329 274.284C361.925 273.829 369.532 273.004 372.875 272.227L423.287 265.305C430.843 264.306 443.821 263.124 451.037 261.481C443.426 249.033 392.32 146.234 390.156 144.787C384.275 156.567 377.708 168.53 371.562 180.201L341.241 237.825L327.155 264.538C324.878 268.872 321.159 275.362 319.478 279.737ZM448.23 92.5117C443.619 89.4153 436.441 85.6068 431.504 82.7491L397.963 63.3601L343.779 32.0534C341.503 30.7407 328.177 22.7801 326.893 22.5106C327.629 24.2347 331.954 30.6584 333.196 32.5994L347.548 55.0094L377.55 101.789L386.842 116.295C388.479 118.857 390.709 122.523 392.494 124.91C395.861 122.559 399.776 120.339 403.387 118.345C411.398 113.92 419.262 108.958 427.295 104.607C434.239 100.514 441.217 96.4818 448.23 92.5117ZM290.759 22.5619C282.542 27.9404 271.208 34.0344 262.478 39.0758L203.156 73.3429L182.631 85.2091C178.691 87.4791 173.933 90.0595 170.155 92.4821C176.829 96.6237 184.545 100.721 191.412 104.802C201.041 110.031 210.399 115.97 220.005 121.261C222.038 122.381 223.998 123.564 225.954 124.814C231.391 116.626 290.677 25.0701 291.11 22.9393L290.759 22.5619ZM167.321 261.507C171.06 262.285 174.954 262.714 178.741 263.236C200.967 266.297 223.469 268.958 245.641 272.279C258.583 274.437 271.833 275.403 284.779 277.656C289.458 278.471 294.324 278.69 298.958 279.811C297.309 275.703 293.939 269.683 291.803 265.646L280.172 243.564L238.248 164.024C236.997 161.67 228.591 145.216 227.803 144.757L187.671 222.471L173.954 249.081C172.243 252.366 169.267 258.682 167.321 261.507ZM303.515 342.997L303.554 291.534C294.648 289.932 285.036 289.081 276.049 287.8L200.818 277.639C198.849 277.384 188.699 275.588 187.431 275.827C188.558 276.912 194.112 279.959 195.795 280.927L207.388 287.672L259.163 317.565L289.992 335.387C292.262 336.698 301.629 342.305 303.515 342.997ZM164.423 102.292C164.22 114.793 164.386 127.698 164.387 140.237L164.387 211.277L164.362 234.695C164.36 235.913 164.174 241.163 164.613 241.859C165.654 241.323 182.112 208.986 183.879 205.336L207.632 159.325L216.312 142.556C217.516 140.206 219.425 136.848 220.358 134.496L180.905 111.648L169.657 105.158C168.653 104.585 165.36 102.66 164.423 102.292ZM314.9 291.415L314.942 326.524C314.944 331.379 315 336.309 314.867 341.161C314.849 341.831 314.878 342.294 315.294 342.713L315.867 342.637L389.627 299.981L417.146 284.071C419.119 282.922 429.597 277.215 430.376 275.953L430.107 275.717L429.271 275.894L358.517 285.471L327.779 289.686C324.125 290.17 318.388 291.167 314.9 291.415ZM453.668 102.505C446.921 106.033 440.044 110.218 433.4 114.035L397.744 134.67C399.164 136.632 401.676 141.735 402.889 144.085L411.115 160.067L435.028 206.323C437.952 212.317 441.252 218.465 444.35 224.397C447.491 230.403 450.625 237.081 454.099 242.844L454.063 133.673L454.059 109.912C454.059 108.693 454.309 103.001 453.668 102.505ZM308.986 16.2803L238.209 126.611L310.047 126.584H352.986L370.847 126.583C373.63 126.58 377.298 126.697 380.019 126.564C378.079 123.087 375.253 119.127 373.077 115.675L355.31 87.9011C340.202 64.3083 325.065 40.7116 309.884 17.1646C309.629 16.7693 309.417 16.4457 308.986 16.2803Z" fill="url(#paint0_radial_81_756)"/>
<path d="M117.315 264.439C122.562 264.439 126.815 268.692 126.815 273.939V311.368C126.816 325.451 138.232 336.868 152.315 336.868H190.461C195.708 336.868 199.961 341.121 199.961 346.368C199.961 351.614 195.708 355.868 190.461 355.868H152.315C127.739 355.868 107.816 335.944 107.815 311.368V273.939C107.815 268.692 112.069 264.439 117.315 264.439ZM501.69 264.439C506.937 264.439 511.19 268.692 511.19 273.939V311.368C511.19 335.944 491.267 355.868 466.69 355.868H428.545C423.298 355.868 419.045 351.614 419.045 346.368C419.045 341.121 423.298 336.868 428.545 336.868H466.69C480.774 336.868 492.19 325.451 492.19 311.368V273.939C492.19 268.692 496.444 264.439 501.69 264.439ZM190.461 14.1646C195.708 14.1646 199.961 18.4179 199.961 23.6646C199.961 28.9113 195.708 33.1646 190.461 33.1646H152.315C138.232 33.1646 126.815 44.5814 126.815 58.6646V96.0933C126.815 101.34 122.562 105.593 117.315 105.593C112.069 105.593 107.815 101.34 107.815 96.0933V58.6646C107.815 34.088 127.739 14.1646 152.315 14.1646H190.461ZM466.69 14.1646C491.267 14.1646 511.19 34.088 511.19 58.6646V96.0933C511.19 101.34 506.937 105.593 501.69 105.593C496.444 105.593 492.19 101.34 492.19 96.0933V58.6646C492.19 44.5814 480.774 33.1646 466.69 33.1646H428.545C423.298 33.1646 419.045 28.9113 419.045 23.6646C419.045 18.4179 423.298 14.1646 428.545 14.1646H466.69Z" fill="url(#paint1_radial_81_756)"/>
<path d="M117.315 264.439C122.562 264.439 126.815 268.692 126.815 273.939V311.368C126.816 325.451 138.232 336.868 152.315 336.868H190.461C195.708 336.868 199.961 341.121 199.961 346.368C199.961 351.614 195.708 355.868 190.461 355.868H152.315C127.739 355.868 107.816 335.944 107.815 311.368V273.939C107.815 268.692 112.069 264.439 117.315 264.439ZM501.69 264.439C506.937 264.439 511.19 268.692 511.19 273.939V311.368C511.19 335.944 491.267 355.868 466.69 355.868H428.545C423.298 355.868 419.045 351.614 419.045 346.368C419.045 341.121 423.298 336.868 428.545 336.868H466.69C480.774 336.868 492.19 325.451 492.19 311.368V273.939C492.19 268.692 496.444 264.439 501.69 264.439ZM190.461 14.1646C195.708 14.1646 199.961 18.4179 199.961 23.6646C199.961 28.9113 195.708 33.1646 190.461 33.1646H152.315C138.232 33.1646 126.815 44.5814 126.815 58.6646V96.0933C126.815 101.34 122.562 105.593 117.315 105.593C112.069 105.593 107.815 101.34 107.815 96.0933V58.6646C107.815 34.088 127.739 14.1646 152.315 14.1646H190.461ZM466.69 14.1646C491.267 14.1646 511.19 34.088 511.19 58.6646V96.0933C511.19 101.34 506.937 105.593 501.69 105.593C496.444 105.593 492.19 101.34 492.19 96.0933V58.6646C492.19 44.5814 480.774 33.1646 466.69 33.1646H428.545C423.298 33.1646 419.045 28.9113 419.045 23.6646C419.045 18.4179 423.298 14.1646 428.545 14.1646H466.69Z" fill="white" fill-opacity="0.2"/>
<path d="M580.985 489.709V528.279H569.414V435.179H594.418C601.955 435.179 607.629 436.864 611.442 440.233C615.343 443.514 617.294 448.745 617.294 455.927V468.695C617.294 478.715 613.304 484.966 605.324 487.448L623.811 528.279H611.176L594.019 489.709H580.985ZM605.723 454.73C605.723 451.361 604.925 448.923 603.329 447.415C601.822 445.908 599.383 445.154 596.014 445.154H580.985V479.734H596.014C599.383 479.734 601.822 478.981 603.329 477.473C604.925 475.877 605.723 473.395 605.723 470.025V454.73Z" fill="white"/>
<path d="M550.789 505.669C550.789 513.206 548.705 518.881 544.538 522.693C540.459 526.417 534.563 528.279 526.849 528.279H521.529C513.815 528.279 507.874 526.417 503.707 522.693C499.628 518.881 497.589 513.206 497.589 505.669V457.789C497.589 450.253 499.628 444.622 503.707 440.898C507.874 437.086 513.815 435.179 521.529 435.179H526.849C534.563 435.179 540.459 437.086 544.538 440.898C548.705 444.622 550.789 450.253 550.789 457.789V505.669ZM539.218 455.262C539.218 452.514 538.198 450.164 536.159 448.213C534.12 446.263 531.46 445.287 528.179 445.287H520.199C516.918 445.287 514.258 446.263 512.219 448.213C510.18 450.164 509.16 452.514 509.16 455.262V508.196C509.16 510.945 510.18 513.295 512.219 515.245C514.258 517.196 516.918 518.171 520.199 518.171H528.179C531.46 518.171 534.12 517.196 536.159 515.245C538.198 513.295 539.218 510.945 539.218 508.196V455.262Z" fill="white"/>
<path d="M446.512 528.279V445.287H425.365V435.179H479.23V445.287H458.083V528.279H446.512Z" fill="white"/>
<path d="M383.066 528.279C375.352 528.279 369.411 526.417 365.244 522.693C361.165 518.881 359.126 513.206 359.126 505.669V457.789C359.126 450.253 361.165 444.622 365.244 440.898C369.411 437.086 375.352 435.179 383.066 435.179H401.952V445.287H381.736C378.455 445.287 375.795 446.263 373.756 448.213C371.717 450.164 370.697 452.514 370.697 455.262V508.196C370.697 510.945 371.717 513.295 373.756 515.245C375.795 517.196 378.455 518.171 381.736 518.171H401.952V528.279H383.066Z" fill="white"/>
<path d="M330.925 435.179V444.888H298.074V475.345H327.6V485.054H298.074V518.57H330.925V528.279H286.503V435.179H330.925Z" fill="white"/>
<path d="M227.844 435.179V518.171H257.503V528.279H216.273V435.179H227.844Z" fill="white"/>
<path d="M156.019 435.179V518.171H185.678V528.279H144.448V435.179H156.019Z" fill="white"/>
<path d="M119.838 505.669C119.838 513.206 117.754 518.881 113.587 522.693C109.508 526.417 103.612 528.279 95.8977 528.279H90.5777C82.8637 528.279 76.923 526.417 72.7557 522.693C68.677 518.881 66.6377 513.206 66.6377 505.669V457.789C66.6377 450.253 68.677 444.622 72.7557 440.898C76.923 437.086 82.8637 435.179 90.5777 435.179H95.8977C103.612 435.179 109.508 437.086 113.587 440.898C117.754 444.622 119.838 450.253 119.838 457.789V505.669ZM108.267 455.262C108.267 452.514 107.247 450.164 105.208 448.213C103.168 446.263 100.508 445.287 97.2277 445.287H89.2477C85.967 445.287 83.307 446.263 81.2677 448.213C79.2284 450.164 78.2087 452.514 78.2087 455.262V508.196C78.2087 510.945 79.2284 513.295 81.2677 515.245C83.307 517.196 85.967 518.171 89.2477 518.171H97.2277C100.508 518.171 103.168 517.196 105.208 515.245C107.247 513.295 108.267 510.945 108.267 508.196V455.262Z" fill="white"/>
<path d="M23.94 528.279C16.226 528.279 10.2853 526.417 6.118 522.693C2.03933 518.881 0 513.206 0 505.669V457.789C0 450.253 2.03933 444.622 6.118 440.898C10.2853 437.086 16.226 435.179 23.94 435.179H42.826V445.287H22.61C19.3293 445.287 16.6693 446.263 14.63 448.213C12.5907 450.164 11.571 452.514 11.571 455.262V508.196C11.571 510.945 12.5907 513.295 14.63 515.245C16.6693 517.196 19.3293 518.171 22.61 518.171H42.826V528.279H23.94Z" fill="white"/>
<defs>
<radialGradient id="paint0_radial_81_756" cx="0" cy="0" r="1" gradientUnits="userSpaceOnUse" gradientTransform="translate(170.741 38.7243) rotate(39.8533) scale(440.908 540.189)">
<stop offset="0.0673077" stop-color="#1EF9D5"/>
<stop offset="0.356861" stop-color="#1E3CF9"/>
<stop offset="0.456862" stop-color="#6A7CFB"/>
<stop offset="0.601451" stop-color="#1E85EB"/>
<stop offset="0.828439" stop-color="#B3FFF9"/>
</radialGradient>
<radialGradient id="paint1_radial_81_756" cx="0" cy="0" r="1" gradientTransform="matrix(-440.805 343.889 -230.389 -607.983 511.554 30.5576)" gradientUnits="userSpaceOnUse">
<stop offset="0.0673077" stop-color="#1EF9D5"/>
<stop offset="0.356861" stop-color="#1E3CF9"/>
<stop offset="0.456862" stop-color="#6A7CFB"/>
<stop offset="0.697934" stop-color="#1E85EB"/>
<stop offset="0.873824" stop-color="#B3FFF9"/>
</radialGradient>
</defs>
</svg>
